<?xml version="1.0" encoding="utf-8"?>
<!-- Generator: Adobe Illustrator 27.7.0, SVG Export Plug-In . SVG Version: 6.00 Build 0)  -->
<svg version="1.1" id="Слой_1"
     transform="rotate(0)matrix(1, 0, 0, 1, 0, 0)" xmlns="http://www.w3.org/2000/svg" x="0px" y="0px"
     viewBox="0 0 256 256"
     style="enable-background:new 0 0 256 256;" xml:space="preserve">
<style type="text/css">
	.st0{fill-rule:evenodd;clip-rule:evenodd;stroke:#000000;stroke-width:2.560000e-03;stroke-miterlimit:42.6667;}
</style>
    <g id="SVGRepo_bgCarrier">
</g>
    <g id="SVGRepo_tracerCarrier">
</g>
    <g id="SVGRepo_iconCarrier">
	<path class="st0" d="M128,81.5c-25.7,0-46.5,20.8-46.5,46.5c0,25.7,20.8,46.5,46.5,46.5c25.7,0,46.5-20.8,46.5-46.5
		C174.5,102.3,153.7,81.5,128,81.5z M104.7,128c0-12.9,10.4-23.3,23.3-23.3s23.3,10.4,23.3,23.3c0,12.9-10.4,23.3-23.3,23.3
		S104.7,140.9,104.7,128z"/>
        <path class="st0" d="M128,81.5c-25.7,0-46.5,20.8-46.5,46.5c0,25.7,20.8,46.5,46.5,46.5c25.7,0,46.5-20.8,46.5-46.5
		C174.5,102.3,153.7,81.5,128,81.5z M104.7,128c0-12.9,10.4-23.3,23.3-23.3s23.3,10.4,23.3,23.3c0,12.9-10.4,23.3-23.3,23.3
		S104.7,140.9,104.7,128z"/>
        <path class="st0" d="M113.7,0.2c2.6-0.2,5.6-0.2,8-0.2h12.8c2.4,0,5.3,0,8,0.2c3.1,0.2,7.4,0.8,12,2.9c5.8,2.6,10.8,6.8,14.4,12.1
		c2.8,4.2,4.2,8.3,4.9,11.3c0.6,2.5,1.1,5.4,1.5,7.8l1.6,9.5l0,0c0.4,0.2,0.8,0.5,1.2,0.7l0,0l10.9-3.9c2.2-0.8,4.9-1.8,7.4-2.5
		c3-0.8,7.1-1.7,12.1-1.3c6.3,0.5,12.3,2.6,17.5,6.2c4.1,2.9,6.7,6.2,8.5,8.7c1.5,2.1,3,4.6,4.2,6.6l5.8,9.8c1.3,2.1,2.8,4.7,4,7.2
		c1.4,2.9,3.1,7,3.7,12.2c0.7,6.5-0.5,13.1-3.5,19c-2.3,4.7-5.4,7.9-7.7,10.1c-2,1.8-4.4,3.7-6.3,5.3l-7.9,6.1l7.9,6.1
		c1.9,1.5,4.3,3.4,6.3,5.3c2.3,2.2,5.4,5.4,7.7,10.1c2.9,5.9,4.1,12.5,3.5,19c-0.5,5.2-2.3,9.3-3.7,12.2c-1.2,2.4-2.8,5-4,7.2
		l-5.8,9.8c-1.2,2-2.7,4.5-4.2,6.6c-1.8,2.5-4.4,5.8-8.5,8.7c-5.2,3.6-11.2,5.8-17.5,6.2c-5,0.4-9.1-0.5-12.1-1.3
		c-2.5-0.7-5.2-1.7-7.4-2.5l-10.9-3.9l0,0c-0.4,0.2-0.8,0.5-1.2,0.7l0,0l-1.6,9.5c-0.4,2.4-0.9,5.3-1.5,7.8c-0.8,3-2.1,7.1-4.9,11.3
		c-3.6,5.3-8.6,9.5-14.4,12.1c-4.6,2.1-8.9,2.7-12,2.9c-2.6,0.2-5.6,0.2-8,0.2h-12.8c-2.4,0-5.3,0-8-0.2c-3.1-0.2-7.4-0.8-12-2.9
		c-5.8-2.6-10.8-6.8-14.4-12.1c-2.8-4.2-4.2-8.3-4.9-11.3c-0.6-2.5-1.1-5.4-1.5-7.8l-1.6-9.5l0,0c-0.4-0.2-0.8-0.5-1.2-0.7l0,0
		L67,215.3c-2.2,0.8-4.9,1.8-7.4,2.5c-3,0.8-7.1,1.7-12.1,1.3c-6.3-0.5-12.3-2.6-17.5-6.2c-4.1-2.9-6.7-6.2-8.5-8.7
		c-1.5-2.1-3-4.6-4.2-6.6l-5.8-9.8c-1.3-2.1-2.8-4.7-4-7.2c-1.4-2.9-3.1-7-3.7-12.2c-0.7-6.5,0.5-13.1,3.5-19
		c2.3-4.7,5.4-7.9,7.7-10.1c2-1.8,4.4-3.7,6.3-5.3l7.6-6.1v-0.1l-7.6-6.1c-1.9-1.5-4.3-3.4-6.3-5.3c-2.3-2.2-5.4-5.4-7.7-10.1
		c-2.9-5.9-4.1-12.5-3.5-19c0.5-5.2,2.3-9.3,3.7-12.2c1.2-2.4,2.8-5,4-7.2l5.8-9.8c1.2-2,2.7-4.5,4.2-6.6c1.8-2.5,4.4-5.8,8.5-8.7
		c5.2-3.6,11.2-5.8,17.5-6.2c5-0.4,9.1,0.5,12.1,1.3c2.5,0.7,5.2,1.7,7.4,2.5l10.9,3.9l0,0c0.4-0.2,0.8-0.5,1.2-0.7l0,0l1.6-9.5
		c0.4-2.4,0.9-5.3,1.5-7.8c0.8-3,2.1-7.1,4.9-11.3c3.6-5.3,8.6-9.5,14.4-12.1C106.3,1,110.6,0.4,113.7,0.2z M152.4,38.8
		c-1-5.6-1.4-8.4-2.9-10.5c-1.2-1.8-2.9-3.2-4.8-4c-2.3-1-5.1-1-10.8-1h-11.8c-5.7,0-8.5,0-10.8,1c-1.9,0.9-3.6,2.3-4.8,4
		c-1.4,2.1-1.9,4.9-2.9,10.5l-1.8,10.5c-0.6,3.8-1,5.6-1.7,7.1c-0.7,1.4-1.2,2.2-2.3,3.3c-1.1,1.1-1,2.2-5.3,4.5
		c-0.3,0.2-2.4,1-2.7,1.2c-4,2.3-6.5,2.9-8,3.3c-1.5,0.4-2.4,0.5-3.9,0.3c-1.5-0.1-3.3-0.8-6.7-2l-11.8-4.3
		c-5.2-1.9-7.8-2.8-10.3-2.7c-2.1,0.2-4.1,0.9-5.8,2.1c-2,1.4-3.5,3.8-6.3,8.6l-5.3,8.9c-3,5-4.5,7.6-4.8,10.1
		c-0.2,2.2,0.2,4.4,1.2,6.3c1.2,2.3,3.4,4.1,8,7.8l8.4,6.7c2.9,2.3,4.4,3.5,5.3,4.7c1,1.4,1.4,2.2,1.9,3.8c0.4,1.5,0.4,3.9,0.4,8.7
		c0,4.8,0,7.2-0.4,8.7c-0.4,1.6-0.9,2.5-1.9,3.8c-0.9,1.2-2.4,2.4-5.3,4.7l-8.4,6.7c-4.6,3.7-6.9,5.5-8,7.8c-1,2-1.4,4.2-1.2,6.3
		c0.3,2.6,1.8,5.1,4.8,10.1l5.3,8.9c2.9,4.8,4.3,7.2,6.3,8.6c1.7,1.2,3.7,1.9,5.8,2.1c2.5,0.2,5.1-0.8,10.3-2.7l11.8-4.3
		c3.5-1.2,5.2-1.9,6.7-2c1.5-0.1,2.4,0,3.9,0.3c1.5,0.4,3.5,1.5,7.5,3.8c0.3,0.2,0.6,0.4,0.9,0.5c4.2,2.3,6.3,3.5,7.5,4.6
		c1.1,1.1,1.7,1.9,2.3,3.3c0.7,1.4,1,3.3,1.7,7.1l1.8,10.5c1,5.6,1.4,8.4,2.9,10.5c1.2,1.8,2.9,3.2,4.8,4c2.3,1,5.1,1,10.8,1h11.8
		c5.7,0,8.5,0,10.8-1c1.9-0.9,3.6-2.3,4.8-4c1.4-2.1,1.9-4.9,2.9-10.5l1.8-10.5c0.6-3.8,1-5.6,1.7-7.1c0.7-1.4,1.2-2.2,2.3-3.3
		c1.1-1.1,3.2-2.3,7.5-4.6c0.3-0.2,0.6-0.3,0.9-0.5c4-2.3,6-3.5,7.5-3.8c1.5-0.4,2.4-0.5,3.9-0.3c1.5,0.1,3.3,0.8,6.7,2l11.8,4.3
		c5.2,1.9,7.8,2.8,10.3,2.7c2.1-0.2,4.1-0.9,5.8-2.1c2-1.4,3.5-3.8,6.3-8.6l5.3-8.9c3-5,4.5-7.6,4.8-10.1c0.2-2.2-0.2-4.4-1.2-6.3
		c-1.2-2.3-3.4-4.1-8-7.8l-8.4-6.7c-2.9-2.3-4.4-3.5-5.3-4.7c-1-1.3-1.4-2.2-1.9-3.8c-0.4-1.5-0.4-3.9-0.4-8.7c0-4.8,0-7.2,0.4-8.7
		c0.4-1.6,0.9-2.5,1.9-3.8c0.9-1.2,2.4-2.4,5.3-4.7l8.4-6.7c4.6-3.7,6.9-5.5,8-7.8c1-2,1.4-4.2,1.2-6.3c-0.3-2.6-1.8-5.1-4.8-10.1
		l-5.3-8.9c-2.9-4.8-4.3-7.2-6.3-8.6c-1.7-1.2-3.7-1.9-5.8-2.1c-2.5-0.2-5.1,0.8-10.3,2.7L184.7,67c-3.5,1.2-5.2,1.9-6.7,2
		c-1.5,0.1-2.4,0-3.9-0.3c-1.5-0.4-3.5-1.5-7.5-3.8c-0.3-0.2-0.6-0.3-0.9-0.5c-4.2-2.3-6.3-3.5-7.5-4.6c-1.1-1.1-1.7-1.9-2.3-3.3
		c-0.7-1.4-1-3.3-1.7-7.1L152.4,38.8z"/>
</g>
</svg>
