<?xml version="1.0" encoding="utf-8"?>
<!-- Generator: Adobe Illustrator 27.7.0, SVG Export Plug-In . SVG Version: 6.00 Build 0)  -->
<svg version="1.1" id="Слой_1" xmlns="http://www.w3.org/2000/svg" x="0px"
     y="0px"
     viewBox="0 0 500 500" style="enable-background:new 0 0 500 500;" xml:space="preserve">
<style type="text/css">
	.st0{fill:#FFFFFF;stroke:#000000;stroke-width:19;stroke-miterlimit:10;}
	.st1{fill:#FFFFFF;stroke:#000000;stroke-width:20;stroke-miterlimit:10;}
</style>
    <path class="st0" d="M203.5,394.5L203.5,394.5c-104.93,0-190-85.07-190-190v0c0-104.93,85.07-190,190-190h0
	c104.93,0,190,85.07,190,190v0C393.5,309.43,308.43,394.5,203.5,394.5z"/>
    <path class="st1" d="M484,470L352,338c-3.31-3.31-8.69-3.31-12,0l0,0c-3.31,3.31-3.31,8.69,0,12l132,132c3.31,3.31,8.69,3.31,12,0
	l0,0C487.31,478.69,487.31,473.31,484,470z"/>
</svg>
