<?xml version="1.0" encoding="utf-8"?>
<!-- Generator: Adobe Illustrator 27.7.0, SVG Export Plug-In . SVG Version: 6.00 Build 0)  -->
<svg version="1.1" id="Слой_1" xmlns="http://www.w3.org/2000/svg" x="0px"
     y="0px"
     viewBox="0 0 800 800" style="enable-background:new 0 0 800 800;" xml:space="preserve">
<style type="text/css">
	.st0{fill-rule:evenodd;clip-rule:evenodd;}
</style>
    <g id="Page-1">
	<g id="Icon-Set" transform="translate(-362.000000, -206.000000)">
		<path id="align-center" class="st0" d="M962,920.3H562.7c-16.1,0-29.6,13.1-29.2,29.2c0.3,15.5,13,27.9,28.6,27.9h399.3
			c16.1,0,29.6-13.1,29.2-29.2C990.2,932.7,977.6,920.3,962,920.3L962,920.3z M1133.4,691.7H390.6c-15.6,0-28.3,12.5-28.6,28
			c-0.3,16,13.2,29.1,29.2,29.1h741.5c16,0,29.5-13.1,29.2-29.1C1161.7,704.2,1149,691.7,1133.4,691.7L1133.4,691.7z M504.9,463.1
			c-15.6,0-28.3,12.5-28.6,28c-0.3,16,13.2,29.1,29.2,29.1h512.9c16,0,29.5-13.1,29.2-29.1c-0.3-15.5-13-28-28.6-28H504.9
			L504.9,463.1z M390.6,291.7h742.2c16,0,29.5-13.1,29.2-29.1c-0.3-15.5-13-28-28.6-28H390.6c-15.8,0-28.6,12.8-28.6,28.6
			C362,278.9,374.8,291.7,390.6,291.7L390.6,291.7z"/>
	</g>
</g>
    <path class="st0" d="M771.4,257.1H28.6c-15.6,0-28.3,12.5-28.6,28c-0.3,16,13.2,29.1,29.2,29.1h741.5c16,0,29.5-13.1,29.2-29.1
	C799.7,269.6,787,257.1,771.4,257.1L771.4,257.1z"/>
    <path class="st0" d="M771.4,714.3H28.6c-15.6,0-28.3,12.5-28.6,28c-0.3,16,13.2,29.1,29.2,29.1h741.5c16,0,29.5-13.1,29.2-29.1
	C799.7,726.8,787,714.3,771.4,714.3L771.4,714.3z"/>
</svg>
