<?xml version="1.0" encoding="utf-8"?>
<!-- Generator: Adobe Illustrator 27.7.0, SVG Export Plug-In . SVG Version: 6.00 Build 0)  -->
<svg version="1.1" id="Слой_1" xmlns="http://www.w3.org/2000/svg" x="0px"
     y="0px"
     viewBox="0 0 361.23 361.23" style="enable-background:new 0 0 361.23 361.23;" xml:space="preserve">
<path d="M3.21,344.06l340.5-340.5c4-4,10.5-4,14.5,0l0,0c4,4,4,10.5,0,14.5l-340.5,340.5c-4,4-10.5,4-14.5,0l0,0
	C-0.79,354.56-0.79,348.06,3.21,344.06z"/>
    <path d="M357.98,343.94L17.48,3.44c-4-4-10.5-4-14.5,0l0,0c-4,4-4,10.5,0,14.5l340.5,340.5c4,4,10.5,4,14.5,0l0,0
	C361.99,354.44,361.99,347.94,357.98,343.94z"/>
</svg>
