<?xml version="1.0" encoding="utf-8"?>
<!-- Generator: Adobe Illustrator 28.0.0, SVG Export Plug-In . SVG Version: 6.00 Build 0)  -->
<svg version="1.1" id="Слой_1" xmlns="http://www.w3.org/2000/svg" xmlns:xlink="http://www.w3.org/1999/xlink" x="0px" y="0px"
	 viewBox="0 0 15 14" style="enable-background:new 0 0 15 14;" xml:space="preserve">
<style type="text/css">
	.st0{fill-rule:evenodd;clip-rule:evenodd;}
	.st1{fill-rule:evenodd;clip-rule:evenodd;stroke:#171A23;stroke-miterlimit:10;}
</style>
<g>
	<path class="st0" d="M14.7,0H0.3C0.1,0,0,0.1,0,0.3v13.4C0,13.9,0.1,14,0.3,14h14.5c0.1,0,0.3-0.1,0.3-0.3V0.3
		C15,0.1,14.9,0,14.7,0z M14.5,13.4h-14V0.6h14V13.4L14.5,13.4z"/>
	<path class="st0" d="M3.5,4.5c0.8,0,1.4-0.8,1.4-1.7S4.3,1.1,3.5,1.1S2,1.9,2,2.8C2,3.8,2.7,4.5,3.5,4.5z M3.5,1.7
		c0.5,0,0.9,0.5,0.9,1.1c0,0.6-0.4,1.1-0.9,1.1S2.6,3.4,2.6,2.8S3,1.7,3.5,1.7z M1.2,10c0.1,0,0.1,0,0.2-0.1l4.2-4.4l2.7,3.1
		c0.1,0.1,0.2,0.1,0.3,0c0,0,0,0,0,0c0.1-0.1,0.1-0.3,0-0.4L7.3,6.7l2.4-3.1l2.9,3.1c0.1,0.1,0.3,0.1,0.4,0c0.1-0.1,0.1-0.3,0-0.4
		L9.9,3C9.8,3,9.8,3,9.7,3C9.6,3,9.5,3,9.5,3.1L7,6.3L5.7,4.9c-0.1-0.1-0.2-0.1-0.3,0c0,0,0,0,0,0L1,9.4C0.9,9.5,0.9,9.7,1,9.9
		C1,9.9,1.1,10,1.2,10z"/>
</g>
<line class="st1" x1="9.7" y1="8.7" x2="13.7" y2="12.7"/>
<line class="st1" x1="13.7" y1="8.7" x2="9.7" y2="12.7"/>
</svg>
