<?xml version="1.0" encoding="utf-8"?>
<!-- Generator: Adobe Illustrator 27.7.0, SVG Export Plug-In . SVG Version: 6.00 Build 0)  -->
<svg version="1.1" id="Слой_1" xmlns="http://www.w3.org/2000/svg" x="0px"
     y="0px"
     viewBox="0 0 702 785" style="enable-background:new 0 0 702 785;" xml:space="preserve">
<style type="text/css">
	.st0{fill:none;stroke:#000000;stroke-width:60;stroke-linecap:round;stroke-linejoin:round;stroke-miterlimit:133.3333;}
</style>
    <path id="Vector" class="st0" d="M430.6,311.5v276.9 M272.4,311.5v276.9 M114.1,153.3v466.8c0,44.3,0,66.5,8.6,83.4
			c7.6,14.9,19.7,27,34.6,34.6c16.9,8.6,39.1,8.6,83.3,8.6h221.8c44.2,0,66.3,0,83.3-8.6c14.9-7.6,27-19.7,34.6-34.6
			c8.6-16.9,8.6-39,8.6-83.3v-467 M114.1,153.3h79.1 M114.1,153.3H35 M193.3,153.3h316.5 M193.3,153.3c0-36.9,0-55.3,6-69.8
			c8-19.4,23.4-34.8,42.8-42.8c14.5-6,33-6,69.9-6h79.1c36.9,0,55.3,0,69.8,6c19.4,8,34.8,23.4,42.8,42.8c6,14.5,6,33,6,69.8
			 M509.8,153.3h79.1 M588.9,153.3H668"/>
</svg>
